<mxfile host="Electron" agent="Mozilla/5.0 (Windows NT 10.0; Win64; x64) AppleWebKit/537.36 (KHTML, like Gecko) draw.io/24.7.17 Chrome/128.0.6613.36 Electron/32.0.1 Safari/537.36" version="24.7.17">
  <diagram name="Page-1" id="zY-2M9E7v5EzNZUhs_1b">
    <mxGraphModel dx="1834" dy="836" grid="1" gridSize="10" guides="1" tooltips="1" connect="1" arrows="1" fold="1" page="0" pageScale="1" pageWidth="850" pageHeight="1100" math="0" shadow="0">
      <root>
        <mxCell id="0" />
        <mxCell id="1" parent="0" />
        <mxCell id="aN27hHi16f98xVH4hjYh-2" value="&lt;font style=&quot;font-size: 21px;&quot;&gt;1&lt;/font&gt;" style="rounded=1;whiteSpace=wrap;html=1;" vertex="1" parent="1">
          <mxGeometry x="-120" y="230" width="90" height="60" as="geometry" />
        </mxCell>
        <mxCell id="aN27hHi16f98xVH4hjYh-3" value="&lt;span style=&quot;font-size: 21px;&quot;&gt;1&lt;/span&gt;" style="rounded=1;whiteSpace=wrap;html=1;" vertex="1" parent="1">
          <mxGeometry x="-10" y="230" width="90" height="60" as="geometry" />
        </mxCell>
        <mxCell id="aN27hHi16f98xVH4hjYh-4" value="&lt;span style=&quot;font-size: 21px;&quot;&gt;2&lt;/span&gt;" style="rounded=1;whiteSpace=wrap;html=1;" vertex="1" parent="1">
          <mxGeometry x="100" y="230" width="90" height="60" as="geometry" />
        </mxCell>
        <mxCell id="aN27hHi16f98xVH4hjYh-5" value="&lt;span style=&quot;font-size: 21px;&quot;&gt;3&lt;/span&gt;" style="rounded=1;whiteSpace=wrap;html=1;" vertex="1" parent="1">
          <mxGeometry x="210" y="230" width="90" height="60" as="geometry" />
        </mxCell>
        <mxCell id="aN27hHi16f98xVH4hjYh-6" value="&lt;span style=&quot;font-size: 21px;&quot;&gt;3&lt;/span&gt;" style="rounded=1;whiteSpace=wrap;html=1;" vertex="1" parent="1">
          <mxGeometry x="320" y="230" width="90" height="60" as="geometry" />
        </mxCell>
        <mxCell id="aN27hHi16f98xVH4hjYh-7" value="&lt;span style=&quot;font-size: 21px;&quot;&gt;4&lt;/span&gt;" style="rounded=1;whiteSpace=wrap;html=1;" vertex="1" parent="1">
          <mxGeometry x="430" y="230" width="90" height="60" as="geometry" />
        </mxCell>
        <mxCell id="aN27hHi16f98xVH4hjYh-8" value="&lt;span style=&quot;font-size: 21px;&quot;&gt;4&lt;/span&gt;" style="rounded=1;whiteSpace=wrap;html=1;" vertex="1" parent="1">
          <mxGeometry x="540" y="230" width="90" height="60" as="geometry" />
        </mxCell>
        <mxCell id="aN27hHi16f98xVH4hjYh-9" value="&lt;span style=&quot;font-size: 21px;&quot;&gt;5&lt;/span&gt;" style="rounded=1;whiteSpace=wrap;html=1;" vertex="1" parent="1">
          <mxGeometry x="650" y="230" width="90" height="60" as="geometry" />
        </mxCell>
        <mxCell id="aN27hHi16f98xVH4hjYh-10" value="&lt;span style=&quot;font-size: 21px;&quot;&gt;5&lt;/span&gt;" style="rounded=1;whiteSpace=wrap;html=1;" vertex="1" parent="1">
          <mxGeometry x="760" y="230" width="90" height="60" as="geometry" />
        </mxCell>
        <mxCell id="aN27hHi16f98xVH4hjYh-11" value="" style="endArrow=classic;html=1;rounded=0;strokeWidth=2;" edge="1" parent="1">
          <mxGeometry width="50" height="50" relative="1" as="geometry">
            <mxPoint x="-75.5" y="390" as="sourcePoint" />
            <mxPoint x="-75.5" y="310" as="targetPoint" />
          </mxGeometry>
        </mxCell>
        <mxCell id="aN27hHi16f98xVH4hjYh-12" value="" style="endArrow=classic;html=1;rounded=0;strokeWidth=2;" edge="1" parent="1">
          <mxGeometry width="50" height="50" relative="1" as="geometry">
            <mxPoint x="360" y="390" as="sourcePoint" />
            <mxPoint x="360" y="310" as="targetPoint" />
          </mxGeometry>
        </mxCell>
        <mxCell id="aN27hHi16f98xVH4hjYh-13" value="" style="endArrow=classic;html=1;rounded=0;strokeWidth=2;" edge="1" parent="1">
          <mxGeometry width="50" height="50" relative="1" as="geometry">
            <mxPoint x="810" y="380" as="sourcePoint" />
            <mxPoint x="810" y="300" as="targetPoint" />
          </mxGeometry>
        </mxCell>
        <mxCell id="aN27hHi16f98xVH4hjYh-14" value="i = 0" style="text;strokeColor=none;fillColor=none;html=1;fontSize=24;fontStyle=1;verticalAlign=middle;align=center;" vertex="1" parent="1">
          <mxGeometry x="-125" y="160" width="100" height="40" as="geometry" />
        </mxCell>
        <mxCell id="aN27hHi16f98xVH4hjYh-15" value="i = 8" style="text;strokeColor=none;fillColor=none;html=1;fontSize=24;fontStyle=1;verticalAlign=middle;align=center;" vertex="1" parent="1">
          <mxGeometry x="760" y="160" width="100" height="40" as="geometry" />
        </mxCell>
        <mxCell id="aN27hHi16f98xVH4hjYh-16" value="&lt;font style=&quot;font-size: 21px;&quot;&gt;INI = 0&lt;/font&gt;" style="rounded=1;whiteSpace=wrap;html=1;fillColor=#d80073;fontColor=#ffffff;strokeColor=#A50040;" vertex="1" parent="1">
          <mxGeometry x="-135" y="400" width="120" height="60" as="geometry" />
        </mxCell>
        <mxCell id="aN27hHi16f98xVH4hjYh-17" value="&lt;font style=&quot;font-size: 21px;&quot;&gt;MED = 4&lt;/font&gt;" style="rounded=1;whiteSpace=wrap;html=1;fillColor=#d80073;fontColor=#ffffff;strokeColor=#A50040;" vertex="1" parent="1">
          <mxGeometry x="300" y="400" width="120" height="60" as="geometry" />
        </mxCell>
        <mxCell id="aN27hHi16f98xVH4hjYh-18" value="&lt;font style=&quot;font-size: 21px;&quot;&gt;FIN = 8&lt;/font&gt;" style="rounded=1;whiteSpace=wrap;html=1;fillColor=#d80073;fontColor=#ffffff;strokeColor=#A50040;" vertex="1" parent="1">
          <mxGeometry x="745" y="390" width="120" height="60" as="geometry" />
        </mxCell>
        <mxCell id="aN27hHi16f98xVH4hjYh-20" value="i = 1" style="text;strokeColor=none;fillColor=none;html=1;fontSize=24;fontStyle=1;verticalAlign=middle;align=center;" vertex="1" parent="1">
          <mxGeometry x="-15" y="160" width="100" height="40" as="geometry" />
        </mxCell>
        <mxCell id="aN27hHi16f98xVH4hjYh-21" value="i = 2" style="text;strokeColor=none;fillColor=none;html=1;fontSize=24;fontStyle=1;verticalAlign=middle;align=center;" vertex="1" parent="1">
          <mxGeometry x="100" y="160" width="100" height="40" as="geometry" />
        </mxCell>
        <mxCell id="aN27hHi16f98xVH4hjYh-22" value="i = 3" style="text;strokeColor=none;fillColor=none;html=1;fontSize=24;fontStyle=1;verticalAlign=middle;align=center;" vertex="1" parent="1">
          <mxGeometry x="200" y="160" width="100" height="40" as="geometry" />
        </mxCell>
        <mxCell id="aN27hHi16f98xVH4hjYh-23" value="i = 4" style="text;strokeColor=none;fillColor=none;html=1;fontSize=24;fontStyle=1;verticalAlign=middle;align=center;" vertex="1" parent="1">
          <mxGeometry x="315" y="160" width="100" height="40" as="geometry" />
        </mxCell>
        <mxCell id="aN27hHi16f98xVH4hjYh-24" value="i = 5" style="text;strokeColor=none;fillColor=none;html=1;fontSize=24;fontStyle=1;verticalAlign=middle;align=center;" vertex="1" parent="1">
          <mxGeometry x="430" y="160" width="100" height="40" as="geometry" />
        </mxCell>
        <mxCell id="aN27hHi16f98xVH4hjYh-25" value="i = 6" style="text;strokeColor=none;fillColor=none;html=1;fontSize=24;fontStyle=1;verticalAlign=middle;align=center;" vertex="1" parent="1">
          <mxGeometry x="530" y="160" width="100" height="40" as="geometry" />
        </mxCell>
        <mxCell id="aN27hHi16f98xVH4hjYh-26" value="i = 7" style="text;strokeColor=none;fillColor=none;html=1;fontSize=24;fontStyle=1;verticalAlign=middle;align=center;" vertex="1" parent="1">
          <mxGeometry x="640" y="160" width="100" height="40" as="geometry" />
        </mxCell>
        <mxCell id="aN27hHi16f98xVH4hjYh-27" value="" style="endArrow=none;html=1;rounded=0;strokeWidth=3;fillColor=#1ba1e2;strokeColor=#006EAF;" edge="1" parent="1">
          <mxGeometry width="50" height="50" relative="1" as="geometry">
            <mxPoint x="-230" y="530" as="sourcePoint" />
            <mxPoint x="980" y="530" as="targetPoint" />
          </mxGeometry>
        </mxCell>
        <mxCell id="aN27hHi16f98xVH4hjYh-50" value="&lt;font style=&quot;font-size: 21px;&quot;&gt;1&lt;/font&gt;" style="rounded=1;whiteSpace=wrap;html=1;" vertex="1" parent="1">
          <mxGeometry x="-175" y="660" width="90" height="60" as="geometry" />
        </mxCell>
        <mxCell id="aN27hHi16f98xVH4hjYh-51" value="&lt;span style=&quot;font-size: 21px;&quot;&gt;1&lt;/span&gt;" style="rounded=1;whiteSpace=wrap;html=1;" vertex="1" parent="1">
          <mxGeometry x="-65" y="660" width="90" height="60" as="geometry" />
        </mxCell>
        <mxCell id="aN27hHi16f98xVH4hjYh-52" value="&lt;span style=&quot;font-size: 21px;&quot;&gt;2&lt;/span&gt;" style="rounded=1;whiteSpace=wrap;html=1;" vertex="1" parent="1">
          <mxGeometry x="45" y="660" width="90" height="60" as="geometry" />
        </mxCell>
        <mxCell id="aN27hHi16f98xVH4hjYh-53" value="&lt;span style=&quot;font-size: 21px;&quot;&gt;3&lt;/span&gt;" style="rounded=1;whiteSpace=wrap;html=1;" vertex="1" parent="1">
          <mxGeometry x="155" y="660" width="90" height="60" as="geometry" />
        </mxCell>
        <mxCell id="aN27hHi16f98xVH4hjYh-54" value="&lt;span style=&quot;font-size: 21px;&quot;&gt;3&lt;/span&gt;" style="rounded=1;whiteSpace=wrap;html=1;" vertex="1" parent="1">
          <mxGeometry x="265" y="660" width="90" height="60" as="geometry" />
        </mxCell>
        <mxCell id="aN27hHi16f98xVH4hjYh-55" value="" style="endArrow=classic;html=1;rounded=0;strokeWidth=2;" edge="1" parent="1">
          <mxGeometry width="50" height="50" relative="1" as="geometry">
            <mxPoint x="-130.5" y="820" as="sourcePoint" />
            <mxPoint x="-130.5" y="740" as="targetPoint" />
          </mxGeometry>
        </mxCell>
        <mxCell id="aN27hHi16f98xVH4hjYh-56" value="" style="endArrow=classic;html=1;rounded=0;strokeWidth=2;" edge="1" parent="1">
          <mxGeometry width="50" height="50" relative="1" as="geometry">
            <mxPoint x="90" y="820" as="sourcePoint" />
            <mxPoint x="90" y="740" as="targetPoint" />
          </mxGeometry>
        </mxCell>
        <mxCell id="aN27hHi16f98xVH4hjYh-57" value="i = 0" style="text;strokeColor=none;fillColor=none;html=1;fontSize=24;fontStyle=1;verticalAlign=middle;align=center;" vertex="1" parent="1">
          <mxGeometry x="-180" y="590" width="100" height="40" as="geometry" />
        </mxCell>
        <mxCell id="aN27hHi16f98xVH4hjYh-58" value="&lt;font style=&quot;font-size: 21px;&quot;&gt;INI = 0&lt;/font&gt;" style="rounded=1;whiteSpace=wrap;html=1;fillColor=#d80073;fontColor=#ffffff;strokeColor=#A50040;" vertex="1" parent="1">
          <mxGeometry x="-190" y="830" width="120" height="60" as="geometry" />
        </mxCell>
        <mxCell id="aN27hHi16f98xVH4hjYh-59" value="&lt;font style=&quot;font-size: 21px;&quot;&gt;MED = 2&lt;/font&gt;" style="rounded=1;whiteSpace=wrap;html=1;fillColor=#d80073;fontColor=#ffffff;strokeColor=#A50040;" vertex="1" parent="1">
          <mxGeometry x="30" y="830" width="120" height="60" as="geometry" />
        </mxCell>
        <mxCell id="aN27hHi16f98xVH4hjYh-60" value="i = 1" style="text;strokeColor=none;fillColor=none;html=1;fontSize=24;fontStyle=1;verticalAlign=middle;align=center;" vertex="1" parent="1">
          <mxGeometry x="-70" y="590" width="100" height="40" as="geometry" />
        </mxCell>
        <mxCell id="aN27hHi16f98xVH4hjYh-61" value="i = 2" style="text;strokeColor=none;fillColor=none;html=1;fontSize=24;fontStyle=1;verticalAlign=middle;align=center;" vertex="1" parent="1">
          <mxGeometry x="45" y="590" width="100" height="40" as="geometry" />
        </mxCell>
        <mxCell id="aN27hHi16f98xVH4hjYh-62" value="i = 3" style="text;strokeColor=none;fillColor=none;html=1;fontSize=24;fontStyle=1;verticalAlign=middle;align=center;" vertex="1" parent="1">
          <mxGeometry x="145" y="590" width="100" height="40" as="geometry" />
        </mxCell>
        <mxCell id="aN27hHi16f98xVH4hjYh-63" value="i = 4" style="text;strokeColor=none;fillColor=none;html=1;fontSize=24;fontStyle=1;verticalAlign=middle;align=center;" vertex="1" parent="1">
          <mxGeometry x="260" y="590" width="100" height="40" as="geometry" />
        </mxCell>
        <mxCell id="aN27hHi16f98xVH4hjYh-64" value="" style="endArrow=classic;html=1;rounded=0;strokeWidth=2;" edge="1" parent="1">
          <mxGeometry width="50" height="50" relative="1" as="geometry">
            <mxPoint x="315" y="820" as="sourcePoint" />
            <mxPoint x="315" y="740" as="targetPoint" />
          </mxGeometry>
        </mxCell>
        <mxCell id="aN27hHi16f98xVH4hjYh-65" value="&lt;font style=&quot;font-size: 21px;&quot;&gt;FIN = 4&lt;/font&gt;" style="rounded=1;whiteSpace=wrap;html=1;fillColor=#d80073;fontColor=#ffffff;strokeColor=#A50040;" vertex="1" parent="1">
          <mxGeometry x="250" y="830" width="120" height="60" as="geometry" />
        </mxCell>
        <mxCell id="aN27hHi16f98xVH4hjYh-66" value="" style="endArrow=none;html=1;rounded=0;strokeWidth=3;fillColor=#1ba1e2;strokeColor=#006EAF;" edge="1" parent="1">
          <mxGeometry width="50" height="50" relative="1" as="geometry">
            <mxPoint x="-230" y="960" as="sourcePoint" />
            <mxPoint x="980" y="960" as="targetPoint" />
          </mxGeometry>
        </mxCell>
        <mxCell id="aN27hHi16f98xVH4hjYh-67" value="&lt;font style=&quot;font-size: 21px;&quot;&gt;1&lt;/font&gt;" style="rounded=1;whiteSpace=wrap;html=1;" vertex="1" parent="1">
          <mxGeometry x="-170" y="1080" width="90" height="60" as="geometry" />
        </mxCell>
        <mxCell id="aN27hHi16f98xVH4hjYh-68" value="&lt;span style=&quot;font-size: 21px;&quot;&gt;1&lt;/span&gt;" style="rounded=1;whiteSpace=wrap;html=1;" vertex="1" parent="1">
          <mxGeometry x="-45" y="1080" width="90" height="60" as="geometry" />
        </mxCell>
        <mxCell id="aN27hHi16f98xVH4hjYh-69" value="&lt;span style=&quot;font-size: 21px;&quot;&gt;2&lt;/span&gt;" style="rounded=1;whiteSpace=wrap;html=1;" vertex="1" parent="1">
          <mxGeometry x="85" y="1080" width="90" height="60" as="geometry" />
        </mxCell>
        <mxCell id="aN27hHi16f98xVH4hjYh-72" value="" style="endArrow=classic;html=1;rounded=0;strokeWidth=2;" edge="1" parent="1">
          <mxGeometry width="50" height="50" relative="1" as="geometry">
            <mxPoint x="-125.5" y="1240" as="sourcePoint" />
            <mxPoint x="-125.5" y="1160" as="targetPoint" />
          </mxGeometry>
        </mxCell>
        <mxCell id="aN27hHi16f98xVH4hjYh-73" value="" style="endArrow=classic;html=1;rounded=0;strokeWidth=2;" edge="1" parent="1">
          <mxGeometry width="50" height="50" relative="1" as="geometry">
            <mxPoint x="-0.5" y="1240" as="sourcePoint" />
            <mxPoint x="-0.5" y="1160" as="targetPoint" />
          </mxGeometry>
        </mxCell>
        <mxCell id="aN27hHi16f98xVH4hjYh-74" value="i = 0" style="text;strokeColor=none;fillColor=none;html=1;fontSize=24;fontStyle=1;verticalAlign=middle;align=center;" vertex="1" parent="1">
          <mxGeometry x="-175" y="1010" width="100" height="40" as="geometry" />
        </mxCell>
        <mxCell id="aN27hHi16f98xVH4hjYh-75" value="&lt;font style=&quot;font-size: 21px;&quot;&gt;INI = 0&lt;/font&gt;" style="rounded=1;whiteSpace=wrap;html=1;fillColor=#d80073;fontColor=#ffffff;strokeColor=#A50040;" vertex="1" parent="1">
          <mxGeometry x="-210" y="1250" width="120" height="60" as="geometry" />
        </mxCell>
        <mxCell id="aN27hHi16f98xVH4hjYh-76" value="&lt;font style=&quot;font-size: 21px;&quot;&gt;MED = 1&lt;/font&gt;" style="rounded=1;whiteSpace=wrap;html=1;fillColor=#d80073;fontColor=#ffffff;strokeColor=#A50040;" vertex="1" parent="1">
          <mxGeometry x="-70" y="1250" width="120" height="60" as="geometry" />
        </mxCell>
        <mxCell id="aN27hHi16f98xVH4hjYh-77" value="i = 1" style="text;strokeColor=none;fillColor=none;html=1;fontSize=24;fontStyle=1;verticalAlign=middle;align=center;" vertex="1" parent="1">
          <mxGeometry x="-50" y="1010" width="100" height="40" as="geometry" />
        </mxCell>
        <mxCell id="aN27hHi16f98xVH4hjYh-78" value="i = 2" style="text;strokeColor=none;fillColor=none;html=1;fontSize=24;fontStyle=1;verticalAlign=middle;align=center;" vertex="1" parent="1">
          <mxGeometry x="80" y="1010" width="100" height="40" as="geometry" />
        </mxCell>
        <mxCell id="aN27hHi16f98xVH4hjYh-81" value="" style="endArrow=classic;html=1;rounded=0;strokeWidth=2;" edge="1" parent="1">
          <mxGeometry width="50" height="50" relative="1" as="geometry">
            <mxPoint x="135" y="1240" as="sourcePoint" />
            <mxPoint x="135" y="1160" as="targetPoint" />
          </mxGeometry>
        </mxCell>
        <mxCell id="aN27hHi16f98xVH4hjYh-82" value="&lt;font style=&quot;font-size: 21px;&quot;&gt;FIN = 2&lt;/font&gt;" style="rounded=1;whiteSpace=wrap;html=1;fillColor=#d80073;fontColor=#ffffff;strokeColor=#A50040;" vertex="1" parent="1">
          <mxGeometry x="70" y="1250" width="120" height="60" as="geometry" />
        </mxCell>
        <mxCell id="aN27hHi16f98xVH4hjYh-83" value="" style="endArrow=none;html=1;rounded=0;strokeWidth=3;fillColor=#1ba1e2;strokeColor=#006EAF;" edge="1" parent="1">
          <mxGeometry width="50" height="50" relative="1" as="geometry">
            <mxPoint x="-245" y="1360" as="sourcePoint" />
            <mxPoint x="965" y="1360" as="targetPoint" />
          </mxGeometry>
        </mxCell>
        <mxCell id="aN27hHi16f98xVH4hjYh-84" value="&lt;font style=&quot;font-size: 21px;&quot;&gt;1&lt;/font&gt;" style="rounded=1;whiteSpace=wrap;html=1;" vertex="1" parent="1">
          <mxGeometry x="-210" y="1460" width="90" height="60" as="geometry" />
        </mxCell>
        <mxCell id="aN27hHi16f98xVH4hjYh-85" value="&lt;span style=&quot;font-size: 21px;&quot;&gt;1&lt;/span&gt;" style="rounded=1;whiteSpace=wrap;html=1;" vertex="1" parent="1">
          <mxGeometry x="-20" y="1460" width="90" height="60" as="geometry" />
        </mxCell>
        <mxCell id="aN27hHi16f98xVH4hjYh-86" value="" style="endArrow=classic;html=1;rounded=0;strokeWidth=2;" edge="1" parent="1">
          <mxGeometry width="50" height="50" relative="1" as="geometry">
            <mxPoint x="-165.5" y="1620" as="sourcePoint" />
            <mxPoint x="-165.5" y="1540" as="targetPoint" />
          </mxGeometry>
        </mxCell>
        <mxCell id="aN27hHi16f98xVH4hjYh-87" value="" style="endArrow=classic;html=1;rounded=0;strokeWidth=2;" edge="1" parent="1">
          <mxGeometry width="50" height="50" relative="1" as="geometry">
            <mxPoint x="29" y="1610" as="sourcePoint" />
            <mxPoint x="29" y="1530" as="targetPoint" />
          </mxGeometry>
        </mxCell>
        <mxCell id="aN27hHi16f98xVH4hjYh-88" value="i = 0" style="text;strokeColor=none;fillColor=none;html=1;fontSize=24;fontStyle=1;verticalAlign=middle;align=center;" vertex="1" parent="1">
          <mxGeometry x="-215" y="1390" width="100" height="40" as="geometry" />
        </mxCell>
        <mxCell id="aN27hHi16f98xVH4hjYh-89" value="&lt;font style=&quot;font-size: 21px;&quot;&gt;INI = 0&lt;/font&gt;" style="rounded=1;whiteSpace=wrap;html=1;fillColor=#d80073;fontColor=#ffffff;strokeColor=#A50040;" vertex="1" parent="1">
          <mxGeometry x="-250" y="1630" width="120" height="60" as="geometry" />
        </mxCell>
        <mxCell id="aN27hHi16f98xVH4hjYh-90" value="&lt;font style=&quot;font-size: 21px;&quot;&gt;MED = 0&lt;/font&gt;" style="rounded=1;whiteSpace=wrap;html=1;fillColor=#d80073;fontColor=#ffffff;strokeColor=#A50040;" vertex="1" parent="1">
          <mxGeometry x="-250" y="1710" width="120" height="60" as="geometry" />
        </mxCell>
        <mxCell id="aN27hHi16f98xVH4hjYh-91" value="i = 1" style="text;strokeColor=none;fillColor=none;html=1;fontSize=24;fontStyle=1;verticalAlign=middle;align=center;" vertex="1" parent="1">
          <mxGeometry x="-30" y="1390" width="100" height="40" as="geometry" />
        </mxCell>
        <mxCell id="aN27hHi16f98xVH4hjYh-92" value="&lt;font style=&quot;font-size: 21px;&quot;&gt;FIN = 1&lt;/font&gt;" style="rounded=1;whiteSpace=wrap;html=1;fillColor=#d80073;fontColor=#ffffff;strokeColor=#A50040;" vertex="1" parent="1">
          <mxGeometry x="-35" y="1620" width="120" height="60" as="geometry" />
        </mxCell>
      </root>
    </mxGraphModel>
  </diagram>
</mxfile>
